<svg width="22" height="18" viewBox="0 0 22 18" fill="none" xmlns="http://www.w3.org/2000/svg">
<path d="M12.9999 3.99996H15.3371C15.5817 3.99996 15.704 3.99996 15.8191 4.02759C15.9211 4.05208 16.0186 4.09249 16.1081 4.14731C16.209 4.20915 16.2955 4.29563 16.4684 4.46858L20.5311 8.53128C20.7041 8.70423 20.7906 8.7907 20.8524 8.89162C20.9072 8.98109 20.9476 9.07863 20.9721 9.18067C20.9998 9.29575 20.9998 9.41805 20.9998 9.66263V12.4999C20.9998 12.9658 20.9998 13.1988 20.9236 13.3825C20.8222 13.6276 20.6275 13.8222 20.3825 13.9237C20.1987 13.9998 19.9657 13.9998 19.4998 13.9998M14.4998 13.9998H12.9999M12.9999 13.9998V4.19995C12.9999 3.07986 12.9999 2.51981 12.7819 2.092C12.5901 1.71568 12.2842 1.40972 11.9078 1.21797C11.48 0.999989 10.92 0.999989 9.79989 0.999989H4.19995C3.07986 0.999989 2.51981 0.999989 2.092 1.21797C1.71568 1.40972 1.40972 1.71568 1.21797 2.092C0.999989 2.51981 0.999989 3.07986 0.999989 4.19995V11.9999C0.999989 13.1044 1.89541 13.9998 2.99997 13.9998M12.9999 13.9998H8.9999M8.9999 13.9998C8.9999 15.6567 7.65677 16.9998 5.99993 16.9998C4.3431 16.9998 2.99997 15.6567 2.99997 13.9998M8.9999 13.9998C8.9999 12.343 7.65677 10.9999 5.99993 10.9999C4.3431 10.9999 2.99997 12.343 2.99997 13.9998M19.4998 14.4998C19.4998 15.8805 18.3805 16.9998 16.9998 16.9998C15.6191 16.9998 14.4998 15.8805 14.4998 14.4998C14.4998 13.1191 15.6191 11.9999 16.9998 11.9999C18.3805 11.9999 19.4998 13.1191 19.4998 14.4998Z" stroke="black" stroke-width="2" stroke-linecap="round" stroke-linejoin="round"/>
</svg>
