<svg width="24" height="17" viewBox="0 0 24 17" fill="none" xmlns="http://www.w3.org/2000/svg">
<path d="M9 7.70534L12 9.80675L22 2.80203M16 2.10156H7.8C6.11984 2.10156 5.27976 2.10156 4.63803 2.3306C4.07354 2.53207 3.6146 2.85355 3.32698 3.24896C3 3.69847 3 4.28692 3 5.46383V11.3478C3 12.5247 3 13.1131 3.32698 13.5627C3.6146 13.9581 4.07354 14.2795 4.63803 14.481C5.27976 14.7101 6.11984 14.7101 7.8 14.7101H16.2C17.8802 14.7101 18.7202 14.7101 19.362 14.481C19.9265 14.2795 20.3854 13.9581 20.673 13.5627C21 13.1131 21 12.5247 21 11.3478V8.40581" stroke="black" stroke-width="2" stroke-linecap="round" stroke-linejoin="round"/>
</svg>
