<svg width="22" height="18" viewBox="0 0 22 18" fill="none" xmlns="http://www.w3.org/2000/svg">
<path d="M20.4999 14.9999L13.8571 8.99995M8.14287 8.99995L1.50009 14.9999M1.00006 3.99998L9.16493 9.71539C9.8261 10.1782 10.1567 10.4096 10.5163 10.4992C10.8339 10.5784 11.1661 10.5784 11.4837 10.4992C11.8433 10.4096 12.1739 10.1782 12.8351 9.71539L20.9999 3.99998M5.80003 16.9999H16.2C17.8801 16.9999 18.7202 16.9999 19.3619 16.6729C19.9264 16.3853 20.3853 15.9264 20.673 15.3619C20.9999 14.7202 20.9999 13.8801 20.9999 12.1999V5.79997C20.9999 4.11982 20.9999 3.27975 20.673 2.63801C20.3853 2.07353 19.9264 1.61459 19.3619 1.32697C18.7202 0.999994 17.8801 0.999994 16.2 0.999994H5.80003C4.11988 0.999994 3.27981 0.999994 2.63807 1.32697C2.07359 1.61459 1.61465 2.07353 1.32703 2.63801C1.00006 3.27975 1.00006 4.11982 1.00006 5.79997V12.1999C1.00006 13.8801 1.00006 14.7202 1.32703 15.3619C1.61465 15.9264 2.07359 16.3853 2.63807 16.6729C3.27981 16.9999 4.11988 16.9999 5.80003 16.9999Z" stroke="black" stroke-width="2" stroke-linecap="round" stroke-linejoin="round"/>
</svg>
