<svg width="31" height="29" viewBox="0 0 31 29" fill="none" xmlns="http://www.w3.org/2000/svg">
<circle cx="29.6265" cy="5.81788" r="1.16358" fill="#FBBC05"/>
<ellipse cx="1.87963" cy="1.79012" rx="1.87963" ry="1.79012" fill="#FBBC05"/>
<ellipse cx="0.895062" cy="24.4353" rx="0.895062" ry="0.984568" fill="#FBBC05"/>
<ellipse cx="27.4783" cy="28.6422" rx="0.447531" ry="0.358025" fill="#FBBC05"/>
<circle cx="15.216" cy="16.6481" r="11.9938" fill="#FBBC05"/>
<path d="M14.3253 19.8913C14.0709 19.8913 13.8166 19.7823 13.6712 19.5643L11.6364 16.9481C11.3457 16.5847 11.4184 16.076 11.7817 15.7853C12.1451 15.4946 12.6538 15.5673 12.9445 15.9307L14.3253 17.7112L17.3775 13.7505C17.6682 13.3871 18.1769 13.3145 18.5403 13.6052C18.9037 13.8958 18.9763 14.4046 18.6856 14.7679L14.9793 19.5643C14.7977 19.746 14.5796 19.8913 14.3253 19.8913Z" fill="white"/>
<circle cx="20.3181" cy="18.5276" r="0.447531" fill="white"/>
<circle cx="8.59251" cy="13.6047" r="0.716049" fill="white"/>
<circle cx="19.0649" cy="9.75582" r="0.268519" fill="white"/>
<circle cx="11.6359" cy="22.3766" r="0.358025" fill="white"/>
<circle cx="15.574" cy="13.784" r="0.179012" fill="white"/>
</svg>
